<svg xmlns="http://www.w3.org/2000/svg" aria-hidden="true" style="position:absolute;width:0;height:0;overflow:hidden">
  <defs>
    <symbol id="icon-Vector-1" viewBox="0 0 30 32">
      <path fill="#fff" d="M30.128 28.061a14.942 14.942 0 0 1-2.567-3.062 13.442 13.442 0 0 1-1.381-5.026v-5.162a11.593 11.593 0 0 0-.164-1.87 7.495 7.495 0 0 1-2.291-.878c.271.893.409 1.823.409 2.759v5.162a15.13 15.13 0 0 0 1.687 6.113 16.848 16.848 0 0 0 2.495 3.135H2.125a16.807 16.807 0 0 0 2.495-3.135 15.114 15.114 0 0 0 1.687-6.113v-5.172c-.005-1.209.223-2.408.671-3.527S8.087 9.148 8.921 8.29c.834-.858 1.826-1.54 2.918-2.006s2.264-.707 3.447-.71a8.668 8.668 0 0 1 4.868 1.505 8.006 8.006 0 0 1-.266-1.829v-.658a10.641 10.641 0 0 0-3.395-1.045V2.23c0-.37-.144-.725-.4-.986s-.603-.409-.965-.409-.709.147-.965.409-.4.616-.4.986v1.369c-2.643.381-5.062 1.726-6.81 3.787s-2.708 4.698-2.701 7.426v5.162A13.413 13.413 0 0 1 2.871 25a14.973 14.973 0 0 1-2.526 3.062c-.109.098-.197.218-.256.354s-.091.282-.091.43v1.421c0 .277.108.543.3.739s.452.306.723.306h28.431c.271 0 .531-.11.723-.306s.3-.462.3-.739v-1.421a1.06 1.06 0 0 0-.347-.784z" style="fill:var(--color1, #fff)"/>
    </symbol>
    <symbol id="icon-Vector-2" viewBox="0 0 30 32">
      <path fill="#fff" d="M21.096 20.303a6.687 6.687 0 0 1 3.122-.765h.004c.115 0 .169-.135.084-.21a14.33 14.33 0 0 0-3.977-2.468c-.015-.008-.031-.011-.046-.019 2.381-1.691 3.931-4.44 3.931-7.541 0-5.138-4.249-9.3-9.491-9.3S5.235 4.162 5.235 9.3c0 3.101 1.549 5.85 3.935 7.541-.015.008-.031.011-.046.019a14.31 14.31 0 0 0-4.575 3.023 13.987 13.987 0 0 0-3.083 4.481 13.728 13.728 0 0 0-1.127 5.179.292.292 0 0 0 .087.217.32.32 0 0 0 .219.091h2.297a.306.306 0 0 0 .307-.292c.077-2.895 1.262-5.606 3.359-7.661 2.167-2.126 5.051-3.296 8.118-3.296 2.174 0 4.261.589 6.059 1.691a.318.318 0 0 0 .311.011zm-6.37-4.553a6.62 6.62 0 0 1-4.656-1.89c-.613-.598-1.099-1.309-1.43-2.092s-.501-1.622-.499-2.468c0-1.721.686-3.341 1.929-4.56s2.895-1.89 4.656-1.89c1.76 0 3.409.671 4.656 1.89.613.598 1.099 1.309 1.43 2.092s.5 1.622.499 2.468a6.352 6.352 0 0 1-1.929 4.56 6.616 6.616 0 0 1-4.656 1.89zm14.105 8.925H25.61v-3.15c0-.165-.138-.3-.307-.3h-2.148a.304.304 0 0 0-.307.3v3.15h-3.221a.304.304 0 0 0-.307.3v2.1c0 .165.138.3.307.3h3.221v3.15c0 .165.138.3.307.3h2.148a.304.304 0 0 0 .307-.3v-3.15h3.221a.304.304 0 0 0 .307-.3v-2.1c0-.165-.138-.3-.307-.3z" style="fill:var(--color1, #fff)"/>
    </symbol>
  
    <symbol id="icon-Vector" viewBox="0 0 32 32">
<path fill="#fff" d="M27.414 24.586l-5.077-5.077c1.049-1.581 1.663-3.474 1.663-5.509 0-5.514-4.486-10-10-10s-10 4.486-10 10 4.486 10 10 10c2.035 0 3.928-0.614 5.509-1.663l5.077 5.077c0.78 0.781 2.048 0.781 2.828 0 0.781-0.781 0.781-2.047 0-2.828zM7 14c0-3.86 3.14-7 7-7s7 3.14 7 7-3.14 7-7 7-7-3.14-7-7z"></path>
</symbol>
  </defs>
</svg>
